# xmcd
#
# Track frame offsets:
#	150
#	15368
#	25495
#	38962
#	52324
#	66327
#	80970
#	93995
#	105423
#	117184
#	129520
#	145214
#	158765
#	176823
#
# Disc length: 2538 seconds
#
# Revision: 0
# Processed by: cddbd v1.5.2PL0 Copyright (c) Steve Scherf et al.
# Submitted via: EasyCDDAExtractor 10.2.0.1
#
DISCID=c209e80e
DTITLE=Various Artist - Boots And Bibles
DYEAR=2000
DGENRE=Gospel
TTITLE0=Merle Haggard - Old Rugged Shoes
TTITLE1=Albert Brumley Jr and Merle Haggard - There's A Road Down The Road
TTITLE2=Joe Paul Nichols - The Father's Son
TTITLE3=The Nicks - Give Me A Song
TTITLE4=Jimmie Fautheree - He Set Me Free
TTITLE5=Joe Price and Deauna Hill - The Mercy Seat
TTITLE6=Kenneth Jordan - I Came Running Back To You
TTITLE7=Sharon Marsh - Skip A Rope
TTITLE8=Misty Rae - Eat Your Heart Out Devil
TTITLE9=Johnny Flanagan - People Go To Heaven On Purpose
TTITLE10=Deauna Hill - In The Shadow Of The Church
TTITLE11=Smokey Stover - Praise The Lord
TTITLE12=Glorya Wilson - He's A Miracle
TTITLE13=Stephanie Starr - The Day The World Changed
EXTD=
EXTT0=
EXTT1=
EXTT2=
EXTT3=
EXTT4=
EXTT5=
EXTT6=
EXTT7=
EXTT8=
EXTT9=
EXTT10=
EXTT11=
EXTT12=
EXTT13=
PLAYORDER=
